<mxfile host="app.diagrams.net" agent="Mozilla/5.0 (Windows NT 10.0; Win64; x64) AppleWebKit/537.36 (KHTML, like Gecko) Chrome/136.0.0.0 Safari/537.36" version="27.0.9" pages="2">
  <diagram name="Page-1" id="ixJIW3lsljDJWg9KQ6-j">
    <mxGraphModel dx="2558" dy="1993" grid="1" gridSize="10" guides="1" tooltips="1" connect="1" arrows="1" fold="1" page="1" pageScale="1" pageWidth="850" pageHeight="1100" math="0" shadow="0">
      <root>
        <mxCell id="0" />
        <mxCell id="1" parent="0" />
        <mxCell id="99w0jN_LoOluToBdo9I3-1" value="Notification System" style="swimlane;fontStyle=1;align=center;verticalAlign=top;childLayout=stackLayout;horizontal=1;startSize=26;horizontalStack=0;resizeParent=1;resizeParentMax=0;resizeLast=0;collapsible=1;marginBottom=0;whiteSpace=wrap;html=1;" parent="1" vertex="1">
          <mxGeometry x="390" y="-126" width="160" height="108" as="geometry" />
        </mxCell>
        <mxCell id="99w0jN_LoOluToBdo9I3-2" value="+notificationID&lt;div&gt;+passenderID&lt;/div&gt;&lt;div&gt;+driverID&lt;/div&gt;&lt;div&gt;+timestamp&lt;/div&gt;&lt;div&gt;+notificationType&lt;/div&gt;" style="text;strokeColor=none;fillColor=none;align=left;verticalAlign=top;spacingLeft=4;spacingRight=4;overflow=hidden;rotatable=0;points=[[0,0.5],[1,0.5]];portConstraint=eastwest;whiteSpace=wrap;html=1;" parent="99w0jN_LoOluToBdo9I3-1" vertex="1">
          <mxGeometry y="26" width="160" height="74" as="geometry" />
        </mxCell>
        <mxCell id="99w0jN_LoOluToBdo9I3-3" value="" style="line;strokeWidth=1;fillColor=none;align=left;verticalAlign=middle;spacingTop=-1;spacingLeft=3;spacingRight=3;rotatable=0;labelPosition=right;points=[];portConstraint=eastwest;strokeColor=inherit;" parent="99w0jN_LoOluToBdo9I3-1" vertex="1">
          <mxGeometry y="100" width="160" height="8" as="geometry" />
        </mxCell>
        <mxCell id="99w0jN_LoOluToBdo9I3-5" value="&lt;div&gt;Passenger&lt;/div&gt;&lt;div&gt;&lt;br&gt;&lt;/div&gt;" style="swimlane;fontStyle=1;align=center;verticalAlign=top;childLayout=stackLayout;horizontal=1;startSize=26;horizontalStack=0;resizeParent=1;resizeParentMax=0;resizeLast=0;collapsible=1;marginBottom=0;whiteSpace=wrap;html=1;" parent="1" vertex="1">
          <mxGeometry x="-280" y="120" width="160" height="78" as="geometry" />
        </mxCell>
        <mxCell id="99w0jN_LoOluToBdo9I3-6" value="+name&lt;div&gt;+contactInfo&lt;/div&gt;" style="text;strokeColor=none;fillColor=none;align=left;verticalAlign=top;spacingLeft=4;spacingRight=4;overflow=hidden;rotatable=0;points=[[0,0.5],[1,0.5]];portConstraint=eastwest;whiteSpace=wrap;html=1;" parent="99w0jN_LoOluToBdo9I3-5" vertex="1">
          <mxGeometry y="26" width="160" height="44" as="geometry" />
        </mxCell>
        <mxCell id="99w0jN_LoOluToBdo9I3-7" value="" style="line;strokeWidth=1;fillColor=none;align=left;verticalAlign=middle;spacingTop=-1;spacingLeft=3;spacingRight=3;rotatable=0;labelPosition=right;points=[];portConstraint=eastwest;strokeColor=inherit;" parent="99w0jN_LoOluToBdo9I3-5" vertex="1">
          <mxGeometry y="70" width="160" height="8" as="geometry" />
        </mxCell>
        <mxCell id="99w0jN_LoOluToBdo9I3-9" value="Driver" style="swimlane;fontStyle=1;align=center;verticalAlign=top;childLayout=stackLayout;horizontal=1;startSize=26;horizontalStack=0;resizeParent=1;resizeParentMax=0;resizeLast=0;collapsible=1;marginBottom=0;whiteSpace=wrap;html=1;" parent="1" vertex="1">
          <mxGeometry x="40" y="120" width="160" height="88" as="geometry" />
        </mxCell>
        <mxCell id="99w0jN_LoOluToBdo9I3-10" value="+name&lt;div&gt;+taxiID&lt;/div&gt;&lt;div&gt;+contactInfo&lt;/div&gt;" style="text;strokeColor=none;fillColor=none;align=left;verticalAlign=top;spacingLeft=4;spacingRight=4;overflow=hidden;rotatable=0;points=[[0,0.5],[1,0.5]];portConstraint=eastwest;whiteSpace=wrap;html=1;" parent="99w0jN_LoOluToBdo9I3-9" vertex="1">
          <mxGeometry y="26" width="160" height="54" as="geometry" />
        </mxCell>
        <mxCell id="99w0jN_LoOluToBdo9I3-11" value="" style="line;strokeWidth=1;fillColor=none;align=left;verticalAlign=middle;spacingTop=-1;spacingLeft=3;spacingRight=3;rotatable=0;labelPosition=right;points=[];portConstraint=eastwest;strokeColor=inherit;" parent="99w0jN_LoOluToBdo9I3-9" vertex="1">
          <mxGeometry y="80" width="160" height="8" as="geometry" />
        </mxCell>
        <mxCell id="99w0jN_LoOluToBdo9I3-13" value="Location Services" style="swimlane;fontStyle=1;align=center;verticalAlign=top;childLayout=stackLayout;horizontal=1;startSize=26;horizontalStack=0;resizeParent=1;resizeParentMax=0;resizeLast=0;collapsible=1;marginBottom=0;whiteSpace=wrap;html=1;" parent="1" vertex="1">
          <mxGeometry x="550" y="320" width="160" height="78" as="geometry" />
        </mxCell>
        <mxCell id="99w0jN_LoOluToBdo9I3-64" value="+passengerLocation&lt;div&gt;+driverLocation&lt;/div&gt;" style="text;strokeColor=none;fillColor=none;align=left;verticalAlign=top;spacingLeft=4;spacingRight=4;overflow=hidden;rotatable=0;points=[[0,0.5],[1,0.5]];portConstraint=eastwest;whiteSpace=wrap;html=1;" parent="99w0jN_LoOluToBdo9I3-13" vertex="1">
          <mxGeometry y="26" width="160" height="44" as="geometry" />
        </mxCell>
        <mxCell id="99w0jN_LoOluToBdo9I3-15" value="" style="line;strokeWidth=1;fillColor=none;align=left;verticalAlign=middle;spacingTop=-1;spacingLeft=3;spacingRight=3;rotatable=0;labelPosition=right;points=[];portConstraint=eastwest;strokeColor=inherit;" parent="99w0jN_LoOluToBdo9I3-13" vertex="1">
          <mxGeometry y="70" width="160" height="8" as="geometry" />
        </mxCell>
        <mxCell id="99w0jN_LoOluToBdo9I3-17" value="Taxi" style="swimlane;fontStyle=1;align=center;verticalAlign=top;childLayout=stackLayout;horizontal=1;startSize=26;horizontalStack=0;resizeParent=1;resizeParentMax=0;resizeLast=0;collapsible=1;marginBottom=0;whiteSpace=wrap;html=1;" parent="1" vertex="1">
          <mxGeometry x="40" y="320" width="160" height="98" as="geometry" />
        </mxCell>
        <mxCell id="99w0jN_LoOluToBdo9I3-18" value="+driverID&lt;div&gt;+qrCode&lt;/div&gt;&lt;div&gt;+licencePlate&lt;/div&gt;&lt;div&gt;+taxiStatus: taxiStatus&lt;/div&gt;" style="text;strokeColor=none;fillColor=none;align=left;verticalAlign=top;spacingLeft=4;spacingRight=4;overflow=hidden;rotatable=0;points=[[0,0.5],[1,0.5]];portConstraint=eastwest;whiteSpace=wrap;html=1;" parent="99w0jN_LoOluToBdo9I3-17" vertex="1">
          <mxGeometry y="26" width="160" height="64" as="geometry" />
        </mxCell>
        <mxCell id="99w0jN_LoOluToBdo9I3-19" value="" style="line;strokeWidth=1;fillColor=none;align=left;verticalAlign=middle;spacingTop=-1;spacingLeft=3;spacingRight=3;rotatable=0;labelPosition=right;points=[];portConstraint=eastwest;strokeColor=inherit;" parent="99w0jN_LoOluToBdo9I3-17" vertex="1">
          <mxGeometry y="90" width="160" height="8" as="geometry" />
        </mxCell>
        <mxCell id="99w0jN_LoOluToBdo9I3-21" value="Route Management System" style="swimlane;fontStyle=1;align=center;verticalAlign=top;childLayout=stackLayout;horizontal=1;startSize=26;horizontalStack=0;resizeParent=1;resizeParentMax=0;resizeLast=0;collapsible=1;marginBottom=0;whiteSpace=wrap;html=1;" parent="1" vertex="1">
          <mxGeometry x="780" y="420" width="160" height="78" as="geometry" />
        </mxCell>
        <mxCell id="99w0jN_LoOluToBdo9I3-22" value="+driverID&lt;div&gt;+routeID&lt;/div&gt;&lt;div&gt;+routeName&lt;/div&gt;" style="text;strokeColor=none;fillColor=none;align=left;verticalAlign=top;spacingLeft=4;spacingRight=4;overflow=hidden;rotatable=0;points=[[0,0.5],[1,0.5]];portConstraint=eastwest;whiteSpace=wrap;html=1;" parent="99w0jN_LoOluToBdo9I3-21" vertex="1">
          <mxGeometry y="26" width="160" height="44" as="geometry" />
        </mxCell>
        <mxCell id="99w0jN_LoOluToBdo9I3-23" value="" style="line;strokeWidth=1;fillColor=none;align=left;verticalAlign=middle;spacingTop=-1;spacingLeft=3;spacingRight=3;rotatable=0;labelPosition=right;points=[];portConstraint=eastwest;strokeColor=inherit;" parent="99w0jN_LoOluToBdo9I3-21" vertex="1">
          <mxGeometry y="70" width="160" height="8" as="geometry" />
        </mxCell>
        <mxCell id="99w0jN_LoOluToBdo9I3-25" value="Taxi Status Information" style="swimlane;fontStyle=1;align=center;verticalAlign=top;childLayout=stackLayout;horizontal=1;startSize=26;horizontalStack=0;resizeParent=1;resizeParentMax=0;resizeLast=0;collapsible=1;marginBottom=0;whiteSpace=wrap;html=1;" parent="1" vertex="1">
          <mxGeometry x="-210" y="320" width="160" height="130" as="geometry" />
        </mxCell>
        <mxCell id="99w0jN_LoOluToBdo9I3-26" value="+ vehicleLocation&lt;div&gt;+availableSeats&lt;/div&gt;&lt;div&gt;+driverID&lt;/div&gt;&lt;div&gt;+currentRoute&lt;/div&gt;" style="text;strokeColor=none;fillColor=none;align=left;verticalAlign=top;spacingLeft=4;spacingRight=4;overflow=hidden;rotatable=0;points=[[0,0.5],[1,0.5]];portConstraint=eastwest;whiteSpace=wrap;html=1;" parent="99w0jN_LoOluToBdo9I3-25" vertex="1">
          <mxGeometry y="26" width="160" height="74" as="geometry" />
        </mxCell>
        <mxCell id="99w0jN_LoOluToBdo9I3-27" value="" style="line;strokeWidth=1;fillColor=none;align=left;verticalAlign=middle;spacingTop=-1;spacingLeft=3;spacingRight=3;rotatable=0;labelPosition=right;points=[];portConstraint=eastwest;strokeColor=inherit;" parent="99w0jN_LoOluToBdo9I3-25" vertex="1">
          <mxGeometry y="100" width="160" height="30" as="geometry" />
        </mxCell>
        <mxCell id="99w0jN_LoOluToBdo9I3-29" value="Taxi Request System" style="swimlane;fontStyle=1;align=center;verticalAlign=top;childLayout=stackLayout;horizontal=1;startSize=26;horizontalStack=0;resizeParent=1;resizeParentMax=0;resizeLast=0;collapsible=1;marginBottom=0;whiteSpace=wrap;html=1;" parent="1" vertex="1">
          <mxGeometry x="390" y="110" width="160" height="140" as="geometry" />
        </mxCell>
        <mxCell id="99w0jN_LoOluToBdo9I3-30" value="+ requestID&lt;div&gt;+passengerID&lt;/div&gt;&lt;div&gt;+pickUpLocation&lt;/div&gt;&lt;div&gt;&lt;div&gt;+destination&lt;/div&gt;&lt;/div&gt;&lt;div&gt;+timestamp&lt;/div&gt;&lt;div&gt;+status&lt;/div&gt;" style="text;strokeColor=none;fillColor=none;align=left;verticalAlign=top;spacingLeft=4;spacingRight=4;overflow=hidden;rotatable=0;points=[[0,0.5],[1,0.5]];portConstraint=eastwest;whiteSpace=wrap;html=1;" parent="99w0jN_LoOluToBdo9I3-29" vertex="1">
          <mxGeometry y="26" width="160" height="94" as="geometry" />
        </mxCell>
        <mxCell id="99w0jN_LoOluToBdo9I3-31" value="" style="line;strokeWidth=1;fillColor=none;align=left;verticalAlign=middle;spacingTop=-1;spacingLeft=3;spacingRight=3;rotatable=0;labelPosition=right;points=[];portConstraint=eastwest;strokeColor=inherit;" parent="99w0jN_LoOluToBdo9I3-29" vertex="1">
          <mxGeometry y="120" width="160" height="20" as="geometry" />
        </mxCell>
        <mxCell id="99w0jN_LoOluToBdo9I3-33" value="User Account Manager" style="swimlane;fontStyle=1;align=center;verticalAlign=top;childLayout=stackLayout;horizontal=1;startSize=26;horizontalStack=0;resizeParent=1;resizeParentMax=0;resizeLast=0;collapsible=1;marginBottom=0;whiteSpace=wrap;html=1;" parent="1" vertex="1">
          <mxGeometry x="-470" y="-40" width="160" height="108" as="geometry" />
        </mxCell>
        <mxCell id="99w0jN_LoOluToBdo9I3-34" value="+accountID&lt;div&gt;+userType&lt;/div&gt;&lt;div&gt;+userPassword&lt;/div&gt;&lt;div&gt;+userPermissions&lt;/div&gt;&lt;div&gt;&lt;br&gt;&lt;/div&gt;" style="text;strokeColor=none;fillColor=none;align=left;verticalAlign=top;spacingLeft=4;spacingRight=4;overflow=hidden;rotatable=0;points=[[0,0.5],[1,0.5]];portConstraint=eastwest;whiteSpace=wrap;html=1;" parent="99w0jN_LoOluToBdo9I3-33" vertex="1">
          <mxGeometry y="26" width="160" height="74" as="geometry" />
        </mxCell>
        <mxCell id="99w0jN_LoOluToBdo9I3-35" value="" style="line;strokeWidth=1;fillColor=none;align=left;verticalAlign=middle;spacingTop=-1;spacingLeft=3;spacingRight=3;rotatable=0;labelPosition=right;points=[];portConstraint=eastwest;strokeColor=inherit;" parent="99w0jN_LoOluToBdo9I3-33" vertex="1">
          <mxGeometry y="100" width="160" height="8" as="geometry" />
        </mxCell>
        <mxCell id="99w0jN_LoOluToBdo9I3-37" value="User" style="swimlane;fontStyle=1;align=center;verticalAlign=top;childLayout=stackLayout;horizontal=1;startSize=26;horizontalStack=0;resizeParent=1;resizeParentMax=0;resizeLast=0;collapsible=1;marginBottom=0;whiteSpace=wrap;html=1;" parent="1" vertex="1">
          <mxGeometry x="-120" y="-30" width="160" height="60" as="geometry" />
        </mxCell>
        <mxCell id="99w0jN_LoOluToBdo9I3-38" value="+userID" style="text;strokeColor=none;fillColor=none;align=left;verticalAlign=top;spacingLeft=4;spacingRight=4;overflow=hidden;rotatable=0;points=[[0,0.5],[1,0.5]];portConstraint=eastwest;whiteSpace=wrap;html=1;" parent="99w0jN_LoOluToBdo9I3-37" vertex="1">
          <mxGeometry y="26" width="160" height="26" as="geometry" />
        </mxCell>
        <mxCell id="99w0jN_LoOluToBdo9I3-39" value="" style="line;strokeWidth=1;fillColor=none;align=left;verticalAlign=middle;spacingTop=-1;spacingLeft=3;spacingRight=3;rotatable=0;labelPosition=right;points=[];portConstraint=eastwest;strokeColor=inherit;" parent="99w0jN_LoOluToBdo9I3-37" vertex="1">
          <mxGeometry y="52" width="160" height="8" as="geometry" />
        </mxCell>
        <mxCell id="99w0jN_LoOluToBdo9I3-41" value="" style="endArrow=classic;html=1;rounded=0;" parent="1" edge="1">
          <mxGeometry width="50" height="50" relative="1" as="geometry">
            <mxPoint x="120" y="120" as="sourcePoint" />
            <mxPoint x="-40" y="30" as="targetPoint" />
            <Array as="points">
              <mxPoint x="120" y="80" />
              <mxPoint x="-40" y="80" />
            </Array>
          </mxGeometry>
        </mxCell>
        <mxCell id="99w0jN_LoOluToBdo9I3-42" value="" style="endArrow=classic;html=1;rounded=0;entryX=0.5;entryY=1;entryDx=0;entryDy=0;" parent="1" target="99w0jN_LoOluToBdo9I3-37" edge="1">
          <mxGeometry width="50" height="50" relative="1" as="geometry">
            <mxPoint x="-200" y="120" as="sourcePoint" />
            <mxPoint x="-40" y="57" as="targetPoint" />
            <Array as="points">
              <mxPoint x="-200" y="80" />
              <mxPoint x="-40" y="80" />
            </Array>
          </mxGeometry>
        </mxCell>
        <mxCell id="99w0jN_LoOluToBdo9I3-43" value="" style="endArrow=diamondThin;endFill=0;endSize=24;html=1;rounded=0;exitX=0.5;exitY=0;exitDx=0;exitDy=0;entryX=0.5;entryY=1;entryDx=0;entryDy=0;" parent="1" source="99w0jN_LoOluToBdo9I3-17" target="99w0jN_LoOluToBdo9I3-9" edge="1">
          <mxGeometry width="160" relative="1" as="geometry">
            <mxPoint x="50" y="270" as="sourcePoint" />
            <mxPoint x="120" y="234" as="targetPoint" />
            <Array as="points" />
          </mxGeometry>
        </mxCell>
        <mxCell id="99w0jN_LoOluToBdo9I3-44" value="" style="endArrow=diamondThin;endFill=1;endSize=24;html=1;rounded=0;entryX=0.012;entryY=0.383;entryDx=0;entryDy=0;entryPerimeter=0;exitX=1;exitY=0.324;exitDx=0;exitDy=0;exitPerimeter=0;" parent="1" source="99w0jN_LoOluToBdo9I3-26" target="99w0jN_LoOluToBdo9I3-18" edge="1">
          <mxGeometry width="160" relative="1" as="geometry">
            <mxPoint x="40" y="460" as="sourcePoint" />
            <mxPoint x="200" y="460" as="targetPoint" />
          </mxGeometry>
        </mxCell>
        <mxCell id="99w0jN_LoOluToBdo9I3-46" value="" style="endArrow=none;html=1;rounded=0;exitX=0.25;exitY=1;exitDx=0;exitDy=0;" parent="1" source="99w0jN_LoOluToBdo9I3-5" edge="1">
          <mxGeometry relative="1" as="geometry">
            <mxPoint x="-237.53999999999994" y="223.99799999999993" as="sourcePoint" />
            <mxPoint x="477.54" y="248.88" as="targetPoint" />
            <Array as="points">
              <mxPoint x="-238" y="540" />
              <mxPoint x="480" y="540" />
            </Array>
          </mxGeometry>
        </mxCell>
        <mxCell id="99w0jN_LoOluToBdo9I3-49" value="" style="endArrow=none;html=1;edgeStyle=orthogonalEdgeStyle;rounded=0;exitX=1;exitY=0.5;exitDx=0;exitDy=0;entryX=0.02;entryY=0.253;entryDx=0;entryDy=0;entryPerimeter=0;" parent="1" source="99w0jN_LoOluToBdo9I3-10" target="99w0jN_LoOluToBdo9I3-30" edge="1">
          <mxGeometry relative="1" as="geometry">
            <mxPoint x="120" y="330" as="sourcePoint" />
            <mxPoint x="280" y="330" as="targetPoint" />
          </mxGeometry>
        </mxCell>
        <mxCell id="99w0jN_LoOluToBdo9I3-52" value="" style="endArrow=none;html=1;edgeStyle=orthogonalEdgeStyle;rounded=0;exitX=0;exitY=0.5;exitDx=0;exitDy=0;entryX=0.847;entryY=-0.039;entryDx=0;entryDy=0;entryPerimeter=0;" parent="1" source="99w0jN_LoOluToBdo9I3-2" target="99w0jN_LoOluToBdo9I3-9" edge="1">
          <mxGeometry relative="1" as="geometry">
            <mxPoint x="120" y="130" as="sourcePoint" />
            <mxPoint x="280" y="130" as="targetPoint" />
          </mxGeometry>
        </mxCell>
        <mxCell id="99w0jN_LoOluToBdo9I3-55" value="" style="endArrow=none;html=1;edgeStyle=orthogonalEdgeStyle;rounded=0;entryX=-0.006;entryY=0.821;entryDx=0;entryDy=0;entryPerimeter=0;" parent="1" target="99w0jN_LoOluToBdo9I3-2" edge="1">
          <mxGeometry relative="1" as="geometry">
            <mxPoint x="-221" y="120" as="sourcePoint" />
            <mxPoint x="140" y="40" as="targetPoint" />
          </mxGeometry>
        </mxCell>
        <mxCell id="99w0jN_LoOluToBdo9I3-58" value="" style="endArrow=none;html=1;edgeStyle=orthogonalEdgeStyle;rounded=0;entryX=0;entryY=0.5;entryDx=0;entryDy=0;" parent="1" edge="1">
          <mxGeometry relative="1" as="geometry">
            <mxPoint x="-310" y="4.499999999999997" as="sourcePoint" />
            <mxPoint x="-120" y="1.0599999999999996" as="targetPoint" />
            <Array as="points">
              <mxPoint x="-310" y="12" />
              <mxPoint x="-119" y="12" />
              <mxPoint x="-119" y="1" />
            </Array>
          </mxGeometry>
        </mxCell>
        <mxCell id="99w0jN_LoOluToBdo9I3-61" value="" style="endArrow=none;html=1;edgeStyle=orthogonalEdgeStyle;rounded=0;exitX=1.004;exitY=0.145;exitDx=0;exitDy=0;exitPerimeter=0;" parent="1" edge="1">
          <mxGeometry relative="1" as="geometry">
            <mxPoint x="200.64000000000033" y="211.76999999999998" as="sourcePoint" />
            <mxPoint x="550" y="368.52" as="targetPoint" />
            <Array as="points">
              <mxPoint x="320" y="184" />
              <mxPoint x="320" y="369" />
            </Array>
          </mxGeometry>
        </mxCell>
        <mxCell id="99w0jN_LoOluToBdo9I3-65" value="" style="endArrow=none;html=1;edgeStyle=orthogonalEdgeStyle;rounded=0;entryX=0.5;entryY=1;entryDx=0;entryDy=0;" parent="1" target="99w0jN_LoOluToBdo9I3-13" edge="1">
          <mxGeometry relative="1" as="geometry">
            <mxPoint x="-280" y="200" as="sourcePoint" />
            <mxPoint x="600" y="440" as="targetPoint" />
            <Array as="points">
              <mxPoint x="-280" y="610" />
              <mxPoint x="630" y="610" />
            </Array>
          </mxGeometry>
        </mxCell>
        <mxCell id="99w0jN_LoOluToBdo9I3-68" value="" style="endArrow=none;html=1;edgeStyle=orthogonalEdgeStyle;rounded=0;exitX=0.927;exitY=-0.01;exitDx=0;exitDy=0;exitPerimeter=0;entryX=0.555;entryY=0.017;entryDx=0;entryDy=0;entryPerimeter=0;" parent="1" source="99w0jN_LoOluToBdo9I3-9" target="99w0jN_LoOluToBdo9I3-21" edge="1">
          <mxGeometry relative="1" as="geometry">
            <mxPoint x="210" y="200" as="sourcePoint" />
            <mxPoint x="370" y="200" as="targetPoint" />
            <Array as="points">
              <mxPoint x="202" y="119" />
              <mxPoint x="202" y="80" />
              <mxPoint x="869" y="80" />
            </Array>
          </mxGeometry>
        </mxCell>
        <mxCell id="99w0jN_LoOluToBdo9I3-71" value="Rating System" style="swimlane;fontStyle=1;align=center;verticalAlign=top;childLayout=stackLayout;horizontal=1;startSize=26;horizontalStack=0;resizeParent=1;resizeParentMax=0;resizeLast=0;collapsible=1;marginBottom=0;whiteSpace=wrap;html=1;" parent="1" vertex="1">
          <mxGeometry x="-540" y="260" width="160" height="88" as="geometry" />
        </mxCell>
        <mxCell id="99w0jN_LoOluToBdo9I3-72" value="+ratingID&lt;div&gt;+passengerID&lt;/div&gt;&lt;div&gt;+driverID&lt;/div&gt;" style="text;strokeColor=none;fillColor=none;align=left;verticalAlign=top;spacingLeft=4;spacingRight=4;overflow=hidden;rotatable=0;points=[[0,0.5],[1,0.5]];portConstraint=eastwest;whiteSpace=wrap;html=1;" parent="99w0jN_LoOluToBdo9I3-71" vertex="1">
          <mxGeometry y="26" width="160" height="54" as="geometry" />
        </mxCell>
        <mxCell id="99w0jN_LoOluToBdo9I3-73" value="" style="line;strokeWidth=1;fillColor=none;align=left;verticalAlign=middle;spacingTop=-1;spacingLeft=3;spacingRight=3;rotatable=0;labelPosition=right;points=[];portConstraint=eastwest;strokeColor=inherit;" parent="99w0jN_LoOluToBdo9I3-71" vertex="1">
          <mxGeometry y="80" width="160" height="8" as="geometry" />
        </mxCell>
        <mxCell id="99w0jN_LoOluToBdo9I3-75" value="" style="endArrow=none;html=1;edgeStyle=orthogonalEdgeStyle;rounded=0;" parent="1" edge="1">
          <mxGeometry relative="1" as="geometry">
            <mxPoint x="-445" y="260" as="sourcePoint" />
            <mxPoint x="-280" y="162.47" as="targetPoint" />
            <Array as="points">
              <mxPoint x="-440" y="263" />
              <mxPoint x="-440" y="251" />
              <mxPoint x="-370" y="251" />
              <mxPoint x="-370" y="163" />
            </Array>
          </mxGeometry>
        </mxCell>
        <mxCell id="99w0jN_LoOluToBdo9I3-78" value="&amp;lt; recieves alerts" style="text;html=1;align=center;verticalAlign=middle;whiteSpace=wrap;rounded=0;" parent="1" vertex="1">
          <mxGeometry x="20" y="-70" width="90" height="30" as="geometry" />
        </mxCell>
        <mxCell id="99w0jN_LoOluToBdo9I3-79" value="makes announcements &amp;gt;" style="text;html=1;align=center;verticalAlign=middle;whiteSpace=wrap;rounded=0;" parent="1" vertex="1">
          <mxGeometry x="220" y="-100" width="120" height="30" as="geometry" />
        </mxCell>
        <mxCell id="99w0jN_LoOluToBdo9I3-80" value="&amp;lt; uses" style="text;html=1;align=center;verticalAlign=middle;whiteSpace=wrap;rounded=0;" parent="1" vertex="1">
          <mxGeometry x="-280" y="-20" width="60" height="30" as="geometry" />
        </mxCell>
        <mxCell id="99w0jN_LoOluToBdo9I3-81" value="makes a request &amp;gt;" style="text;html=1;align=center;verticalAlign=middle;whiteSpace=wrap;rounded=0;" parent="1" vertex="1">
          <mxGeometry x="80" y="506" width="130" height="30" as="geometry" />
        </mxCell>
        <mxCell id="99w0jN_LoOluToBdo9I3-82" value="&amp;lt; recieves a request" style="text;html=1;align=center;verticalAlign=middle;whiteSpace=wrap;rounded=0;" parent="1" vertex="1">
          <mxGeometry x="230" y="130" width="120" height="30" as="geometry" />
        </mxCell>
        <mxCell id="99w0jN_LoOluToBdo9I3-83" value="announces a route&amp;gt;" style="text;html=1;align=center;verticalAlign=middle;whiteSpace=wrap;rounded=0;" parent="1" vertex="1">
          <mxGeometry x="610" y="46" width="120" height="30" as="geometry" />
        </mxCell>
        <mxCell id="99w0jN_LoOluToBdo9I3-84" value="&amp;lt; keeps track of location" style="text;html=1;align=center;verticalAlign=middle;whiteSpace=wrap;rounded=0;" parent="1" vertex="1">
          <mxGeometry x="330" y="340" width="110" height="30" as="geometry" />
        </mxCell>
        <mxCell id="99w0jN_LoOluToBdo9I3-85" value="&amp;lt; keeps track of location" style="text;html=1;align=center;verticalAlign=middle;whiteSpace=wrap;rounded=0;" parent="1" vertex="1">
          <mxGeometry x="50" y="580" width="130" height="30" as="geometry" />
        </mxCell>
        <mxCell id="99w0jN_LoOluToBdo9I3-86" value="&amp;lt;makes a rating" style="text;html=1;align=center;verticalAlign=middle;whiteSpace=wrap;rounded=0;rotation=270;" parent="1" vertex="1">
          <mxGeometry x="-425" y="194" width="60" height="30" as="geometry" />
        </mxCell>
        <mxCell id="99w0jN_LoOluToBdo9I3-87" value="" style="endArrow=none;html=1;rounded=0;entryX=0;entryY=0.5;entryDx=0;entryDy=0;" parent="1" target="99w0jN_LoOluToBdo9I3-10" edge="1">
          <mxGeometry width="50" height="50" relative="1" as="geometry">
            <mxPoint x="-379" y="290" as="sourcePoint" />
            <mxPoint x="-90" y="300" as="targetPoint" />
            <Array as="points">
              <mxPoint y="290" />
              <mxPoint y="173" />
            </Array>
          </mxGeometry>
        </mxCell>
        <mxCell id="99w0jN_LoOluToBdo9I3-88" value="recieves a rating &amp;gt;" style="text;html=1;align=center;verticalAlign=middle;whiteSpace=wrap;rounded=0;" parent="1" vertex="1">
          <mxGeometry x="-230" y="260" width="120" height="30" as="geometry" />
        </mxCell>
        <mxCell id="BLGKOl_yUe81cdmy0i_G-1" value="Payment System" style="swimlane;fontStyle=1;align=center;verticalAlign=top;childLayout=stackLayout;horizontal=1;startSize=26;horizontalStack=0;resizeParent=1;resizeParentMax=0;resizeLast=0;collapsible=1;marginBottom=0;whiteSpace=wrap;html=1;" parent="1" vertex="1">
          <mxGeometry x="-550" y="410" width="160" height="98" as="geometry" />
        </mxCell>
        <mxCell id="BLGKOl_yUe81cdmy0i_G-2" value="+passengerID&lt;div&gt;+driverID&lt;/div&gt;&lt;div&gt;+rideID&lt;/div&gt;&lt;div&gt;+ridePrice&lt;/div&gt;" style="text;strokeColor=none;fillColor=none;align=left;verticalAlign=top;spacingLeft=4;spacingRight=4;overflow=hidden;rotatable=0;points=[[0,0.5],[1,0.5]];portConstraint=eastwest;whiteSpace=wrap;html=1;" parent="BLGKOl_yUe81cdmy0i_G-1" vertex="1">
          <mxGeometry y="26" width="160" height="64" as="geometry" />
        </mxCell>
        <mxCell id="BLGKOl_yUe81cdmy0i_G-3" value="" style="line;strokeWidth=1;fillColor=none;align=left;verticalAlign=middle;spacingTop=-1;spacingLeft=3;spacingRight=3;rotatable=0;labelPosition=right;points=[];portConstraint=eastwest;strokeColor=inherit;" parent="BLGKOl_yUe81cdmy0i_G-1" vertex="1">
          <mxGeometry y="90" width="160" height="8" as="geometry" />
        </mxCell>
        <mxCell id="BLGKOl_yUe81cdmy0i_G-5" value="" style="endArrow=none;html=1;rounded=0;exitX=0.688;exitY=0;exitDx=0;exitDy=0;exitPerimeter=0;entryX=-0.008;entryY=0.9;entryDx=0;entryDy=0;entryPerimeter=0;" parent="1" source="BLGKOl_yUe81cdmy0i_G-1" target="99w0jN_LoOluToBdo9I3-6" edge="1">
          <mxGeometry width="50" height="50" relative="1" as="geometry">
            <mxPoint x="-320" y="330" as="sourcePoint" />
            <mxPoint x="-270" y="280" as="targetPoint" />
            <Array as="points">
              <mxPoint x="-440" y="380" />
              <mxPoint x="-310" y="380" />
              <mxPoint x="-310" y="186" />
            </Array>
          </mxGeometry>
        </mxCell>
        <mxCell id="BLGKOl_yUe81cdmy0i_G-6" value="&amp;lt;makes a payment" style="text;html=1;align=center;verticalAlign=middle;whiteSpace=wrap;rounded=0;rotation=270;" parent="1" vertex="1">
          <mxGeometry x="-380" y="288" width="120" height="30" as="geometry" />
        </mxCell>
        <mxCell id="BLGKOl_yUe81cdmy0i_G-7" value="" style="endArrow=none;html=1;rounded=0;" parent="1" edge="1">
          <mxGeometry width="50" height="50" relative="1" as="geometry">
            <mxPoint x="-420" y="510" as="sourcePoint" />
            <mxPoint x="190" y="208" as="targetPoint" />
            <Array as="points">
              <mxPoint x="-420" y="670" />
              <mxPoint x="270" y="670" />
              <mxPoint x="270" y="208" />
            </Array>
          </mxGeometry>
        </mxCell>
        <mxCell id="BLGKOl_yUe81cdmy0i_G-8" value="recieves a payment &amp;gt;" style="text;html=1;align=center;verticalAlign=middle;whiteSpace=wrap;rounded=0;" parent="1" vertex="1">
          <mxGeometry x="-190" y="640" width="140" height="30" as="geometry" />
        </mxCell>
        <mxCell id="UxKYoh2lbsbiJ7DfVJe1-1" value="" style="endArrow=none;html=1;rounded=0;exitX=0.437;exitY=0.008;exitDx=0;exitDy=0;exitPerimeter=0;entryX=0.431;entryY=0.779;entryDx=0;entryDy=0;entryPerimeter=0;" parent="1" source="99w0jN_LoOluToBdo9I3-29" target="99w0jN_LoOluToBdo9I3-3" edge="1">
          <mxGeometry width="50" height="50" relative="1" as="geometry">
            <mxPoint x="425" y="32" as="sourcePoint" />
            <mxPoint x="460" y="-10" as="targetPoint" />
          </mxGeometry>
        </mxCell>
        <mxCell id="UxKYoh2lbsbiJ7DfVJe1-2" value="initiates a notification &amp;gt;" style="text;html=1;align=center;verticalAlign=middle;whiteSpace=wrap;rounded=0;rotation=270;" parent="1" vertex="1">
          <mxGeometry x="410" y="16" width="60" height="30" as="geometry" />
        </mxCell>
      </root>
    </mxGraphModel>
  </diagram>
  <diagram id="G49pztrkitlOAviMZGpp" name="Page-2">
    <mxGraphModel grid="1" page="1" gridSize="10" guides="1" tooltips="1" connect="1" arrows="1" fold="1" pageScale="1" pageWidth="850" pageHeight="1100" math="0" shadow="0">
      <root>
        <mxCell id="0" />
        <mxCell id="1" parent="0" />
      </root>
    </mxGraphModel>
  </diagram>
</mxfile>
